<svg version="1" xmlns="http://www.w3.org/2000/svg" width="1004" height="1004" viewBox="0 0 753.000000 753.000000"><path d="M368.8 135.5c-.3.3-3.6.8-7.4 1-6.7.5-12.8 1.1-18.9 2.1-1.6.2-4.3.6-6 .9-4.8.7-5.9 1-7.2 1.8-.7.5-1.3.6-1.3.3 0-.2-1.5 0-3.2.5-1.8.5-4.6 1.2-6.3 1.5-4.7.8-22.1 6.8-31.4 10.8-9.3 4-26.7 13.1-29.2 15.2-.8.8-1.9 1.4-2.2 1.4-1 0-16.1 11.2-16.5 12.2-.2.4-1 .8-1.7.8s-1.5.3-1.7.7c-.1.5-4.3 4.4-9.2 8.8-5 4.4-10.8 10-13 12.4-2.3 2.5-4.9 5.3-5.8 6.2-.9 1-4.4 5.3-7.8 9.6-3.3 4.3-6.5 8.3-7 9-.6.7-1 1.6-1 2.2 0 .5-.7 1.1-1.5 1.5-.8.3-1.5 1-1.5 1.6 0 .6-1.3 3-2.9 5.3-2.7 4-11.5 19.6-11.6 20.7-.1.3-1.6 3.6-3.4 7.5-6.8 14.7-14.7 42-16.5 57.5-.3 2.5-.8 5.6-1.1 7-.3 1.4-.7 7.9-1 14.5-.2 6.6-.5 12.2-.6 12.5-.1.3 0 .9.1 1.5.1.5.3 5.2.5 10.5.2 5.2.6 10.8.9 12.5.2 1.6.8 5 1.2 7.5.4 2.5.8 5.4 1 6.5.1 1.1.5 3.2.8 4.7.3 1.6.8 3.8 1 5 2.4 12.3 9.4 32.3 16.4 46.8 2.5 5.2 4.8 9.9 5 10.4.4.7-5.2.4-13.2-.9-2.2-.4-10.9-1.2-21.6-2.1-3.6-.3-17.1-.7-30-.8l-23.5-.1-5.5 2.8c-3 1.6-9.5 5.3-14.5 8.2-4.9 2.9-13.6 8-19.3 11.2-5.6 3.2-10.2 6.3-10.2 6.9 0 .6.9 3.7 1.9 7 1 3.2 3.3 10.6 5.1 16.4 1.7 5.8 4.1 13.3 5.2 16.8 1.1 3.4 2.1 6.8 2.2 7.5.1.7.4 1.6.7 2.2.3.5 1.2 3.2 1.9 6 .7 2.7 1.7 5.5 2.1 6.1.5.6.6 1.4.2 1.7-1.1 1.2 3.7.8 6-.5 1.2-.6 3.1-1.2 4.2-1.4 1.1-.1 5.4-1.1 9.5-2.2 8.7-2.4 21.8-5.1 27.5-5.8 2.2-.3 6-.9 8.5-1.4 2.5-.5 7.4-1.2 11-1.5 3.6-.4 7.6-.8 9-1 10.5-1.6 56.8-2.4 70.5-1.1 9.2.8 21.7 2.2 27 3.1 15.4 2.5 20 3.8 24.4 6.8 11.7 8 40.7 20.9 57.1 25.3 3.4.9 23.7 5.4 27 5.9 4.8.8 7.1 3.1 6 6-.5 1.4-.5 3.7 0 5.4.5 1.7.6 3.1.3 3.1-1 0 6.3 6.5 8.7 7.8 12.5 6.3 37.1 3.9 45-4.5 2.6-2.7 3.4-4.6 3.8-8.4.3-3.6.1-4.9-.8-4.9s-.8-.6.5-2c1.5-1.7 5.5-2.9 15-4.5 1.7-.2 5.7-1.2 9-2.1 3.3-.8 6.7-1.7 7.5-1.9 3.9-.8 21.1-6.8 26.5-9.2 10.5-4.7 28.6-14.3 30.7-16.3 1.1-1 3.9-2.2 6.2-2.6 2.2-.4 4.3-.8 4.6-.9 1.4-.3 9.7-1.9 11-2 .8-.1 3.4-.5 5.8-.9 9.9-1.5 22.6-2.7 32.2-3.2 3.6-.1 6.5-.3 6.5-.4 0-.7 43.5.4 52.5 1.4 19.9 2.3 24.2 2.8 34 4.7 3 .6 6.4 1.2 7.5 1.4 1.1.1 3.8.6 6 1 2.2.3 6 1.2 8.5 1.9 2.5.8 4.8 1.4 5.3 1.5.4 0 .8.1 1 .2.1 0 .9.2 1.7.4.8.1 4.4 1 7.9 1.9 3.5 1 6.4 1.6 6.6 1.4.1-.2 1.4-4.1 2.8-8.8 1.5-4.7 4.3-13.8 6.3-20.4 2-6.5 3.7-12.3 3.8-13 .1-.6 1.2-4.3 2.4-8.1 1.3-3.9 2.7-8.4 3.2-10.1 1.3-3.9 1.3-7.4 0-7.4-1.7 0-9-3.4-9-4.2 0-.5-.4-.8-.9-.8s-4.6-2.3-9.1-5c-4.5-2.8-8.3-5-8.5-5-.2 0-4.1-2.3-8.7-5.2l-8.3-5.1-26 .2c-31.3.2-39.5.4-39.5 1.1 0 .3-2.1.6-4.8.8-2.6.1-8.4.8-12.9 1.5-4.6.8-8.3 1.2-8.3 1 0-.2 2.1-4.8 4.6-10.1 7.8-16.4 13.9-33.9 14.9-42.7.5-4 1.2-8 1.5-8 .3 0 1.2-4.7 2.4-13 .4-2.8 1-6.1 1.3-7.5.7-3.7 1.4-19.1 1.5-30 0-10.7-.9-22.9-2.6-34-2.3-14.4-8.7-36.6-14-48.5-15.7-34.8-28.9-52.7-59.5-81.5-7.1-6.7-32.8-25-35-25-.5 0-1.1-.3-1.3-.8-.6-1.4-20.2-10.8-31.3-15.1-6-2.3-11.9-4.6-13-5.1-2.3-1-5.5-1.9-8.7-2.6-1.3-.2-3.4-.6-4.8-.9-1.4-.4-3.6-.8-5-1.1-1.4-.3-4.1-.9-6-1.4-1.9-.4-6.2-1.1-9.5-1.5-3.2-.4-6.8-.9-8-1.1-1.1-.3-8.4-.7-16.3-.9-7.8-.2-14.6-.7-15.1-.9-.5-.3-1-.3-1.3-.1z"/></svg>